<svg width="81" height="77" viewBox="0 0 81 77" fill="none" xmlns="http://www.w3.org/2000/svg">
<path d="M55.7895 28.8947H25.0526C12.3218 28.8947 2 39.2165 2 51.9473C2 64.6782 12.3218 75 25.0526 75H55.7895C68.5203 75 78.8421 64.6782 78.8421 51.9473C78.8421 39.2165 68.5203 28.8947 55.7895 28.8947Z" stroke="black" stroke-width="4" stroke-linejoin="round"/>
<path d="M25.0526 44.2632V59.6316M17.3684 51.9474H32.7368M40.421 25.0526V12.9769H55.7895V2" stroke="black" stroke-width="4" stroke-linecap="round" stroke-linejoin="round"/>
<path d="M55.7894 59.6316C57.8274 59.6316 59.7819 58.822 61.223 57.3809C62.6641 55.9399 63.4736 53.9854 63.4736 51.9474C63.4736 49.9094 62.6641 47.9549 61.223 46.5138C59.7819 45.0728 57.8274 44.2632 55.7894 44.2632C53.7515 44.2632 51.7969 45.0728 50.3559 46.5138C48.9148 47.9549 48.1052 49.9094 48.1052 51.9474C48.1052 53.9854 48.9148 55.9399 50.3559 57.3809C51.7969 58.822 53.7515 59.6316 55.7894 59.6316Z" stroke="black" stroke-width="4" stroke-linejoin="round"/>
</svg>
