<svg width="57" height="72" viewBox="0 0 57 72" fill="none" xmlns="http://www.w3.org/2000/svg">
<path d="M11.3651 16.9841C15.5029 16.9841 18.8572 13.6298 18.8572 9.49206C18.8572 5.35431 15.5029 2 11.3651 2C7.22736 2 3.87305 5.35431 3.87305 9.49206C3.87305 13.6298 7.22736 16.9841 11.3651 16.9841Z" stroke="black" stroke-width="4" stroke-linecap="round" stroke-linejoin="round"/>
<path d="M45.0795 16.9841C49.2172 16.9841 52.5715 13.6298 52.5715 9.49206C52.5715 5.35431 49.2172 2 45.0795 2C40.9417 2 37.5874 5.35431 37.5874 9.49206C37.5874 13.6298 40.9417 16.9841 45.0795 16.9841Z" stroke="black" stroke-width="4" stroke-linecap="round" stroke-linejoin="round"/>
<path d="M2 28.2222H20.7302L16.9841 69.4286H5.74603L2 28.2222ZM35.7143 28.2222H54.4445L50.6984 69.4286H39.4603L35.7143 28.2222Z" stroke="black" stroke-width="4" stroke-linecap="round" stroke-linejoin="round"/>
</svg>
