<svg width="73" height="73" viewBox="0 0 73 73" fill="none" xmlns="http://www.w3.org/2000/svg">
<path d="M38.316 27.4211C45.3358 27.4211 51.0265 21.7304 51.0265 14.7105C51.0265 7.6907 45.3358 2 38.316 2C31.2962 2 25.6055 7.6907 25.6055 14.7105C25.6055 21.7304 31.2962 27.4211 38.316 27.4211Z" stroke="black" stroke-width="4" stroke-linecap="round" stroke-linejoin="round"/>
<path d="M2 69.1842C2 53.1381 16.6334 40.1316 34.6842 40.1316M52.5697 45.5789C48.7094 45.5789 45.5789 49.2269 45.5789 53.7246C45.5789 61.872 53.8408 69.2768 58.2895 71C62.7382 69.2768 71 61.872 71 53.7246C71 49.2287 67.8696 45.5789 64.0092 45.5789C61.6451 45.5789 59.5551 46.9462 58.2895 49.0398C57.0239 46.9462 54.9339 45.5789 52.5697 45.5789Z" stroke="black" stroke-width="4" stroke-linecap="round" stroke-linejoin="round"/>
</svg>
