<svg width="81" height="79" viewBox="0 0 81 79" fill="none" xmlns="http://www.w3.org/2000/svg">
<path d="M29.4967 76.0124C23.1289 74.1112 17.3618 70.5936 12.7569 65.8022C14.2385 64.0449 15.1621 61.8855 15.4095 59.6003C15.6569 57.3151 15.2169 55.0081 14.1457 52.9744C13.0745 50.9408 11.4209 49.2729 9.39641 48.1844C7.37196 47.0959 5.06877 46.6362 2.78156 46.864C2.26049 44.3117 1.99864 41.7132 2.00001 39.1082C2.00001 35.085 2.616 31.2042 3.7633 27.5582H3.925C5.88803 27.5588 7.81884 27.0591 9.5351 26.1063C11.2514 25.1534 12.6964 23.7789 13.7339 22.1124C14.7714 20.4459 15.367 18.5425 15.4645 16.5819C15.562 14.6213 15.1581 12.6682 14.2911 10.907C18.8045 6.70436 24.2627 3.64939 30.2051 2C31.1722 3.89882 32.6457 5.4931 34.4626 6.60643C36.2796 7.71976 38.3691 8.30875 40.5 8.30822C42.6309 8.30875 44.7204 7.71976 46.5374 6.60643C48.3543 5.4931 49.8278 3.89882 50.7949 2C56.7373 3.64939 62.1955 6.70436 66.7089 10.907C65.8355 12.6805 65.432 14.6485 65.537 16.6226C65.6419 18.5967 66.2518 20.5108 67.3083 22.1817C68.3647 23.8527 69.8324 25.2245 71.5707 26.1658C73.3091 27.1072 75.26 27.5866 77.2367 27.5582C78.4089 31.296 79.0035 35.1909 79 39.1082C79 41.7647 78.7305 44.3596 78.2184 46.866C75.9312 46.6381 73.628 47.0978 71.6036 48.1864C69.5791 49.2749 67.9255 50.9427 66.8543 52.9763C65.7831 55.01 65.3431 57.3171 65.5905 59.6022C65.8379 61.8874 66.7615 64.0468 68.2431 65.8041C63.6379 70.5948 57.8709 74.1117 51.5033 76.0124C50.7555 73.6818 49.2871 71.6488 47.3095 70.2065C45.332 68.7641 42.9476 67.987 40.5 67.987C38.0524 67.987 35.668 68.7641 33.6904 70.2065C31.7129 71.6488 30.2445 73.6818 29.4967 76.0124Z" stroke="black" stroke-width="4" stroke-linejoin="round"/>
<path d="M40.4999 52.5832C42.2695 52.5832 44.0217 52.2347 45.6566 51.5575C47.2914 50.8803 48.7769 49.8877 50.0282 48.6365C51.2794 47.3852 52.272 45.8997 52.9492 44.2649C53.6264 42.63 53.9749 40.8778 53.9749 39.1082C53.9749 37.3386 53.6264 35.5864 52.9492 33.9515C52.272 32.3167 51.2794 30.8312 50.0282 29.5799C48.7769 28.3287 47.2914 27.3361 45.6566 26.6589C44.0217 25.9817 42.2695 25.6332 40.4999 25.6332C36.9261 25.6332 33.4987 27.0529 30.9716 29.5799C28.4446 32.107 27.0249 35.5344 27.0249 39.1082C27.0249 42.682 28.4446 46.1094 30.9716 48.6365C33.4987 51.1635 36.9261 52.5832 40.4999 52.5832Z" stroke="black" stroke-width="4" stroke-linejoin="round"/>
</svg>
